<svg width="276" height="37" viewBox="0 0 276 37" fill="none" xmlns="http://www.w3.org/2000/svg">
<path d="M0 0H13.4844C17.4223 0 20.8424 0.423594 23.7448 1.27078C26.6472 2.11797 29.0476 3.33385 30.9459 4.9184C32.8599 6.48727 34.2798 8.40129 35.2054 10.6605C36.1467 12.9039 36.6174 15.4298 36.6174 18.2381C36.6174 20.9052 36.1546 23.3761 35.2289 25.651C34.3033 27.9102 32.8913 29.8713 30.993 31.5343C29.0947 33.1816 26.6943 34.4759 23.7919 35.4172C20.8895 36.3428 17.4693 36.8057 13.5315 36.8057L0 36.7821V0ZM15.32 30.3341C17.5478 30.3341 19.501 30.0517 21.1797 29.4869C22.8584 28.9064 24.2547 28.0906 25.3686 27.0394C26.4982 25.9883 27.3454 24.7175 27.9102 23.2271C28.475 21.7367 28.7574 20.0737 28.7574 18.2381C28.7574 16.4339 28.475 14.8101 27.9102 13.3668C27.3454 11.9077 26.4982 10.6761 25.3686 9.67207C24.2547 8.65231 22.8584 7.86787 21.1797 7.31877C19.501 6.76967 17.5478 6.49511 15.32 6.49511H7.45997V30.3341H15.32Z" fill="#F5F5F5"/>
<path d="M44.1009 0H62.8096C65.6336 0 68.081 0.298085 70.1519 0.894255C72.2228 1.47474 73.9408 2.32193 75.3057 3.43582C76.6706 4.54972 77.6825 5.90679 78.3414 7.50703C79.016 9.10728 79.3534 10.9193 79.3534 12.9432C79.3534 14.3081 79.1886 15.6102 78.8592 16.8496C78.5297 18.0734 78.0198 19.2029 77.3295 20.2384C76.6549 21.2739 75.7999 22.1995 74.7644 23.0153C73.729 23.8154 72.5131 24.4822 71.1168 25.0156L79.118 36.7821H69.9872L63.0685 26.3335H62.8567L51.5609 26.3099V36.7821H44.1009V0ZM62.9979 19.8619C64.4099 19.8619 65.6414 19.6971 66.6926 19.3677C67.7594 19.0382 68.6458 18.5754 69.3518 17.9792C70.0735 17.3831 70.6069 16.6614 70.9521 15.8142C71.3129 14.9513 71.4933 13.9943 71.4933 12.9432C71.4933 10.8879 70.7873 9.30339 69.3753 8.18949C67.9634 7.05991 65.8376 6.49511 62.9979 6.49511H51.5609V19.8619H62.9979Z" fill="#F5F5F5"/>
<path d="M87.2604 0H94.7675V36.7821H87.2604V0Z" fill="#F5F5F5"/>
<path d="M104.298 0H137.198V6.54218H111.758V16.1672H133.362V22.3093H111.758V36.7821H104.298V0Z" fill="#F5F5F5"/>
<path d="M146.808 4.57764e-05H179.708V6.54223H154.268V16.1672H175.872V22.3094H154.268V36.7822H146.808V4.57764e-05Z" fill="#F5F5F5"/>
<path d="M194.138 4.57764e-05H227.037V6.54223H201.598V16.1672H223.201V22.3094H201.598V36.7822H194.138V4.57764e-05Z" fill="#F5F5F5"/>
<path d="M254.961 6.54223H241.383V4.57764e-05H276V6.54223H262.421V36.7822H254.961V6.54223Z" fill="#F5F5F5"/>
</svg>
