<svg width="162" height="156" viewBox="0 0 162 156" fill="none" xmlns="http://www.w3.org/2000/svg">
<path d="M6.94568 50.3839L71.1083 79.3279C77.3945 82.1625 84.5947 82.1625 90.8729 79.3279L155.036 50.3839C163.354 46.6279 163.354 34.811 155.036 31.0627L90.8729 2.12596C84.5867 -0.708654 77.3865 -0.708654 71.1083 2.12596L6.94568 31.0627C-1.37252 34.8187 -1.37252 46.6356 6.94568 50.3839Z" fill="#FF654C"/>
<path d="M5.55325 87.0168L71.1074 116.587C77.3935 119.422 84.5937 119.422 90.8719 116.587L156.883 86.8133C161.693 84.6469 163.563 78.6399 160.525 74.0397C158.142 70.4314 153.269 69.3834 149.324 71.1558L90.8713 97.5194C84.5852 100.354 77.385 100.354 71.1068 97.5194L12.2399 70.9667C7.59918 68.8776 2.08654 71.1918 0.420057 76.1506C-1.02842 80.4624 1.41167 85.1457 5.55325 87.0168Z" fill="#FF654C"/>
<path d="M149.324 107.829L90.8714 134.193C84.5852 137.027 77.385 137.027 71.1068 134.193L12.2399 107.64C7.59918 105.551 2.08654 107.872 0.420057 112.824C-1.02842 117.136 1.41149 121.82 5.55307 123.691L71.1072 153.262C77.3933 156.097 84.5935 156.097 90.8717 153.262L156.883 123.488C161.693 121.322 163.563 115.314 160.525 110.714C158.142 107.106 153.269 106.057 149.324 107.829Z" fill="#FF654C"/>
</svg>
