<svg width="163" height="161" viewBox="0 0 163 161" fill="none" xmlns="http://www.w3.org/2000/svg">
<path d="M82.2871 92.3219L131.014 141.874C135.164 146.095 141.967 146.095 146.117 141.874C148.065 139.894 149.156 137.227 149.156 134.449V93.3496C149.156 87.073 146.69 81.0476 142.289 76.5722L82.2871 15.5537" stroke="#5F62FF" stroke-width="27.119" stroke-linecap="round" stroke-linejoin="round"/>
<g filter="url(#filter0_d_597_34)">
<path d="M82.0254 92.3219L33.2982 141.874C29.1484 146.095 22.3453 146.095 18.1954 141.874C16.2476 139.894 15.1561 137.227 15.1561 134.449V93.3496C15.1561 87.073 17.6223 81.0476 22.0231 76.5722L82.0254 15.5537" stroke="#4C45E1" stroke-width="27.119" stroke-linecap="round" stroke-linejoin="round"/>
</g>
<g filter="url(#filter1_d_597_34)">
<path d="M82.2266 15.5537L115.661 49.5547" stroke="#5F62FF" stroke-width="27.119" stroke-linecap="round" stroke-linejoin="round"/>
</g>
<path d="M82.2266 15.5537L115.661 49.5547L132.379 66.5551L142.229 76.5723C146.63 81.0476 149.096 87.073 149.096 93.3496V111.17" stroke="#5F62FF" stroke-width="27.119" stroke-linecap="round" stroke-linejoin="round"/>
<defs>
<filter id="filter0_d_597_34" x="0.000465035" y="1.19652" width="97.1788" height="159.795" filterUnits="userSpaceOnUse" color-interpolation-filters="sRGB">
<feFlood flood-opacity="0" result="BackgroundImageFix"/>
<feColorMatrix in="SourceAlpha" type="matrix" values="0 0 0 0 0 0 0 0 0 0 0 0 0 0 0 0 0 0 127 0" result="hardAlpha"/>
<feOffset dy="0.797619"/>
<feGaussianBlur stdDeviation="0.797619"/>
<feComposite in2="hardAlpha" operator="out"/>
<feColorMatrix type="matrix" values="0 0 0 0 0 0 0 0 0 0 0 0 0 0 0 0 0 0 0.46 0"/>
<feBlend mode="normal" in2="BackgroundImageFix" result="effect1_dropShadow_597_34"/>
<feBlend mode="normal" in="SourceGraphic" in2="effect1_dropShadow_597_34" result="shape"/>
</filter>
<filter id="filter1_d_597_34" x="65.8763" y="9.29236e-05" width="66.1361" height="66.7035" filterUnits="userSpaceOnUse" color-interpolation-filters="sRGB">
<feFlood flood-opacity="0" result="BackgroundImageFix"/>
<feColorMatrix in="SourceAlpha" type="matrix" values="0 0 0 0 0 0 0 0 0 0 0 0 0 0 0 0 0 0 127 0" result="hardAlpha"/>
<feOffset dy="0.797619"/>
<feGaussianBlur stdDeviation="1.39583"/>
<feComposite in2="hardAlpha" operator="out"/>
<feColorMatrix type="matrix" values="0 0 0 0 0 0 0 0 0 0 0 0 0 0 0 0 0 0 0.25 0"/>
<feBlend mode="normal" in2="BackgroundImageFix" result="effect1_dropShadow_597_34"/>
<feBlend mode="normal" in="SourceGraphic" in2="effect1_dropShadow_597_34" result="shape"/>
</filter>
</defs>
</svg>
